<?xml version="1.0" encoding="UTF-8" standalone="no"?>
<!DOCTYPE svg PUBLIC "-//W3C//DTD SVG 1.1//EN" "http://www.w3.org/Graphics/SVG/1.1/DTD/svg11.dtd">
<svg width="100%" height="100%" viewBox="0 0 1271 1271" version="1.1" xmlns="http://www.w3.org/2000/svg" xmlns:xlink="http://www.w3.org/1999/xlink" xml:space="preserve" xmlns:serif="http://www.serif.com/" style="fill-rule:evenodd;clip-rule:evenodd;stroke-linejoin:round;stroke-miterlimit:2;">
    <g transform="matrix(1,0,0,1,-2697.96,-255.52)">
        <g transform="matrix(1.09719,0,0,1.09719,-584.159,-1217.01)">
            <path id="Favicon" d="M4149.41,1557.38C4149.41,1500.28 4126.73,1445.52 4086.35,1405.14C4045.98,1364.77 3991.22,1342.09 3934.12,1342.09L3206.67,1342.09C3149.57,1342.09 3094.81,1364.77 3054.44,1405.14C3014.06,1445.52 2991.38,1500.28 2991.38,1557.38L2991.38,2284.83C2991.38,2341.93 3014.06,2396.69 3054.44,2437.06C3094.81,2477.44 3149.57,2500.12 3206.67,2500.12L3934.12,2500.12C3991.22,2500.12 4045.98,2477.44 4086.35,2437.06C4126.73,2396.69 4149.41,2341.93 4149.41,2284.83L4149.41,1557.38Z" style="fill:url(#_Linear1);"/>
            <clipPath id="_clip2">
                <path id="Favicon1" serif:id="Favicon" d="M4149.41,1557.38C4149.41,1500.28 4126.73,1445.52 4086.35,1405.14C4045.98,1364.77 3991.22,1342.09 3934.12,1342.09L3206.67,1342.09C3149.57,1342.09 3094.81,1364.77 3054.44,1405.14C3014.06,1445.52 2991.38,1500.28 2991.38,1557.38L2991.38,2284.83C2991.38,2341.93 3014.06,2396.69 3054.44,2437.06C3094.81,2477.44 3149.57,2500.12 3206.67,2500.12L3934.12,2500.12C3991.22,2500.12 4045.98,2477.44 4086.35,2437.06C4126.73,2396.69 4149.41,2341.93 4149.41,2284.83L4149.41,1557.38Z"/>
            </clipPath>
            <g clip-path="url(#_clip2)">
                <g opacity="0.3">
                    <g transform="matrix(0.911417,0,0,0.911417,487.021,1129.13)">
                        <g style="filter:url(#_Effect3);">
                            <path d="M3782.13,233.658C3844.78,233.658 3904.86,258.546 3949.16,302.846C3993.46,347.145 4018.35,407.229 4018.35,469.879L4018.35,661.631C3919.69,719.84 3820.59,787.242 3742.99,868.952C3598.05,1021.56 3527.8,1249.51 3383.05,1415.94C3354.05,1449.29 3327.34,1478.38 3301.94,1504.25L2983.98,1504.25C2921.33,1504.25 2861.25,1479.36 2816.95,1435.06C2772.65,1390.76 2747.76,1330.67 2747.76,1268.03L2747.76,469.879C2747.76,407.229 2772.65,347.145 2816.95,302.846C2861.25,258.546 2921.33,233.658 2983.98,233.658L3782.13,233.658Z" style="fill:#000e9b;"/>
                        </g>
                    </g>
                </g>
                <g transform="matrix(0.911417,0,0,0.911417,487.021,1129.13)">
                    <path d="M3782.13,233.658C3844.78,233.658 3904.86,258.546 3949.16,302.846C3993.46,347.145 4018.35,407.229 4018.35,469.879L4018.35,661.631C3919.69,719.84 3820.59,787.242 3742.99,868.952C3598.05,1021.56 3527.8,1249.51 3383.05,1415.94C3354.05,1449.29 3327.34,1478.38 3301.94,1504.25L2983.98,1504.25C2921.33,1504.25 2861.25,1479.36 2816.95,1435.06C2772.65,1390.76 2747.76,1330.67 2747.76,1268.03L2747.76,469.879C2747.76,407.229 2772.65,347.145 2816.95,302.846C2861.25,258.546 2921.33,233.658 2983.98,233.658L3782.13,233.658Z" style="fill:url(#_Linear4);"/>
                </g>
                <g opacity="0.32">
                    <g transform="matrix(0.99466,0,0,0.98596,258.29,1111.71)">
                        <g style="filter:url(#_Effect5);">
                            <path d="M3795.83,234.056C3700.47,260.756 3604.48,294.554 3515.38,348.705C3339.91,455.347 3258.57,577.07 3032.08,727.721C2942.15,787.535 2849.95,842.65 2747.76,891.27L2747.76,469.879C2747.76,407.229 2772.65,347.145 2816.95,302.846C2861.25,258.546 2921.33,233.658 2983.98,233.658L3782.13,233.658C3786.71,233.658 3791.28,233.791 3795.83,234.056Z" style="fill:#000e9b;"/>
                        </g>
                    </g>
                </g>
                <g opacity="0.08">
                    <g transform="matrix(0.911417,0,0,0.911417,487.021,1129.13)">
                        <g style="filter:url(#_Effect6);">
                            <path d="M3795.83,234.056C3700.47,260.756 3604.48,294.554 3515.38,348.705C3339.91,455.347 3258.57,577.07 3032.08,727.721C2942.15,787.535 2849.95,842.65 2747.76,891.27L2747.76,469.879C2747.76,407.229 2772.65,347.145 2816.95,302.846C2861.25,258.546 2921.33,233.658 2983.98,233.658L3782.13,233.658C3786.71,233.658 3791.28,233.791 3795.83,234.056Z" style="fill:#000e9b;"/>
                        </g>
                    </g>
                </g>
                <g transform="matrix(0.911417,0,0,0.911417,487.021,1129.13)">
                    <path d="M3795.83,234.056C3700.47,260.756 3604.48,294.554 3515.38,348.705C3339.91,455.347 3258.57,577.07 3032.08,727.721C2942.15,787.535 2849.95,842.65 2747.76,891.27L2747.76,469.879C2747.76,407.229 2772.65,347.145 2816.95,302.846C2861.25,258.546 2921.33,233.658 2983.98,233.658L3782.13,233.658C3786.71,233.658 3791.28,233.791 3795.83,234.056Z" style="fill:url(#_Linear7);"/>
                </g>
                <g id="path191" opacity="0.42">
                    <g transform="matrix(3.44473,0,0,3.44473,2649,1453.29)">
                        <g style="filter:url(#_Effect8);">
                            <path d="M261.822,268.718C264.088,268.311 265.731,267.883 266.585,267.48C266.876,267.343 267.947,266.984 268.966,266.682C271.061,266.062 276.771,263.356 276.771,262.983C276.771,262.848 277.069,262.664 277.433,262.572C277.796,262.481 278.094,262.3 278.094,262.17C278.094,262.041 278.243,261.928 278.425,261.92C278.838,261.903 281.689,259.896 284.084,257.935C285.91,256.441 287.074,255.247 289.646,252.23C294.978,245.976 298.745,236.956 299.967,227.513C300.223,225.542 300.239,217.96 299.993,216.029C299.9,215.302 299.754,213.873 299.668,212.854C299.495,210.787 299.015,207.077 298.181,201.345C297.874,199.235 297.401,195.842 297.13,193.804C296.859,191.767 296.516,189.326 296.368,188.38C296.22,187.434 295.976,185.41 295.826,183.882C295.676,182.354 295.434,180.33 295.289,179.384C294.91,176.919 294.044,169.211 293.728,165.494C293.579,163.748 293.305,160.711 293.118,158.747C292.598,153.275 292.674,133.095 293.231,128.981C294.526,119.413 297.916,112.909 304.438,107.478C305.354,106.715 311.565,103.449 312.1,103.449C312.212,103.449 313.03,103.104 313.918,102.682C314.806,102.26 316.187,101.676 316.988,101.383C322.9,99.223 324.74,98.519 326.248,97.84C328.624,96.77 331.909,95.148 332.069,94.968C332.142,94.885 332.975,94.357 333.921,93.795C335.747,92.708 338.847,90.588 339.43,90.027C339.622,89.842 339.92,89.688 340.092,89.686C340.263,89.683 340.88,89.257 341.462,88.739C342.044,88.221 342.937,87.479 343.446,87.09C345.843,85.261 348.183,82.994 350.761,80.005C352.993,77.416 356.146,72.936 356.146,72.352C356.146,72.155 356.275,71.916 356.432,71.819C357.298,71.283 360.27,63.598 361.032,59.925C361.273,58.761 361.588,57.392 361.731,56.882C362.14,55.433 362.331,45.693 362.001,43.124C361.617,40.135 361.192,37.82 360.908,37.171C360.781,36.88 360.415,35.838 360.095,34.855C359.776,33.873 359.246,32.757 358.918,32.375C358.186,31.523 357.501,31.581 354.349,32.758C353.143,33.209 350.88,33.773 349.322,34.011C347.764,34.25 346.251,34.55 345.96,34.68C345.395,34.931 341.889,35.295 335.945,35.72C333.929,35.864 332.183,36.042 332.064,36.116C331.945,36.189 329.784,36.543 327.262,36.901C323.251,37.471 318.04,38.442 315.136,39.162C311.096,40.162 306.692,41.47 306.272,41.793C306.127,41.905 305.531,42.148 304.949,42.333C303.955,42.649 299.628,44.784 297.276,46.119C289.418,50.582 281.627,58.7 277.828,66.385C276.574,68.922 274.987,73.276 274.012,76.858C273.36,79.254 272.548,84.805 272.137,89.691C271.7,94.873 271.639,107.57 272.029,112.048C272.471,117.113 272.806,122.569 273.328,133.215C273.668,140.168 274.104,145.722 274.386,146.708C274.511,147.145 274.685,148.633 274.773,150.016C275.02,153.897 275.711,160.363 275.99,161.393C276.127,161.902 276.365,163.807 276.518,165.626C276.671,167.445 276.973,170.184 277.189,171.712C277.405,173.24 277.744,175.792 277.942,177.384C278.141,178.977 278.637,182.336 279.046,184.85C279.454,187.364 279.701,189.507 279.595,189.613C279.489,189.719 278.04,189.128 276.375,188.299C274.71,187.471 273.287,186.793 273.213,186.793C273.139,186.793 272.189,186.376 271.101,185.867C270.013,185.357 269.046,184.941 268.952,184.941C268.858,184.941 268.406,184.779 267.948,184.581C266.93,184.142 264.281,183.353 263.823,183.353C263.64,183.353 263.115,183.186 262.656,182.982C261.497,182.465 257.655,181.816 253.885,181.5C251.418,181.293 249.853,181.321 246.873,181.624C242.417,182.077 241.044,182.341 237.613,183.402C234.458,184.378 227.214,187.968 225.574,189.369C225.429,189.493 224.893,189.887 224.384,190.244C222.125,191.83 218.381,195.688 215.702,199.191C212.979,202.751 213.206,202.404 212.31,204.388C211.916,205.261 211.495,206.015 211.374,206.063C211.253,206.112 211.155,206.332 211.155,206.552C211.155,206.772 210.981,207.268 210.768,207.654C210.269,208.562 209.121,211.568 208.884,212.59C208.783,213.026 208.611,213.502 208.502,213.648C208.392,213.794 208.216,214.677 208.11,215.61C208.004,216.544 207.807,217.675 207.672,218.124C207.437,218.905 206.817,225.126 206.892,225.951C206.912,226.169 207.033,227.856 207.161,229.699C207.288,231.542 207.576,233.626 207.8,234.329C208.024,235.033 208.285,236.025 208.379,236.534C208.545,237.42 209.412,240.126 210.16,242.091C210.887,243.998 212.101,246.208 212.678,246.676C213.007,246.942 213.208,247.271 213.124,247.406C212.911,247.751 214.604,250.293 215.047,250.293C215.247,250.293 215.376,250.501 215.333,250.756C215.277,251.09 215.425,251.213 215.862,251.197C216.292,251.181 216.426,251.288 216.32,251.562C216.124,252.073 218.25,254.823 218.801,254.77C219.721,254.682 220.15,254.807 220.15,255.163C220.15,255.405 219.965,255.486 219.621,255.397C218.769,255.174 219.009,255.785 220.084,256.575C221.378,257.526 222.197,258.207 223.046,259.039C223.426,259.412 223.942,259.795 224.193,259.891C224.443,259.987 224.648,260.196 224.648,260.354C224.648,260.513 224.759,260.574 224.895,260.49C225.031,260.406 225.549,260.756 226.047,261.268C226.544,261.78 227.103,262.199 227.289,262.199C227.475,262.199 228.178,262.591 228.85,263.071C229.522,263.55 230.489,264.105 230.998,264.305C231.508,264.504 232.112,264.826 232.342,265.021C232.572,265.215 232.929,265.375 233.136,265.376C233.343,265.376 233.831,265.544 234.222,265.748C234.612,265.951 235.295,266.198 235.74,266.296C236.185,266.393 236.616,266.583 236.699,266.717C236.782,266.852 237.114,266.962 237.437,266.962C237.76,266.962 238.259,267.124 238.546,267.322C238.833,267.521 240.497,267.95 242.243,268.276C243.989,268.603 245.835,268.985 246.344,269.125C246.853,269.265 248.997,269.461 251.107,269.56C254.944,269.74 257.077,269.572 261.822,268.718L261.822,268.718Z" style="fill:#2e3030;fill-rule:nonzero;"/>
                        </g>
                    </g>
                </g>
                <g id="path1911" serif:id="path191" transform="matrix(4.17258,0,0,4.17258,2383.18,1292.25)">
                    <path d="M261.822,268.718C264.088,268.311 265.731,267.883 266.585,267.48C266.876,267.343 267.947,266.984 268.966,266.682C271.061,266.062 276.771,263.356 276.771,262.983C276.771,262.848 277.069,262.664 277.433,262.572C277.796,262.481 278.094,262.3 278.094,262.17C278.094,262.041 278.243,261.928 278.425,261.92C278.838,261.903 281.689,259.896 284.084,257.935C285.91,256.441 287.074,255.247 289.646,252.23C294.978,245.976 298.745,236.956 299.967,227.513C300.223,225.542 300.239,217.96 299.993,216.029C299.9,215.302 299.754,213.873 299.668,212.854C299.495,210.787 299.015,207.077 298.181,201.345C297.874,199.235 297.401,195.842 297.13,193.804C296.859,191.767 296.516,189.326 296.368,188.38C296.22,187.434 295.976,185.41 295.826,183.882C295.676,182.354 295.434,180.33 295.289,179.384C294.91,176.919 294.044,169.211 293.728,165.494C293.579,163.748 293.305,160.711 293.118,158.747C292.598,153.275 292.674,133.095 293.231,128.981C294.526,119.413 297.916,112.909 304.438,107.478C305.354,106.715 311.565,103.449 312.1,103.449C312.212,103.449 313.03,103.104 313.918,102.682C314.806,102.26 316.187,101.676 316.988,101.383C322.9,99.223 324.74,98.519 326.248,97.84C328.624,96.77 331.909,95.148 332.069,94.968C332.142,94.885 332.975,94.357 333.921,93.795C335.747,92.708 338.847,90.588 339.43,90.027C339.622,89.842 339.92,89.688 340.092,89.686C340.263,89.683 340.88,89.257 341.462,88.739C342.044,88.221 342.937,87.479 343.446,87.09C345.843,85.261 348.183,82.994 350.761,80.005C352.993,77.416 356.146,72.936 356.146,72.352C356.146,72.155 356.275,71.916 356.432,71.819C357.298,71.283 360.27,63.598 361.032,59.925C361.273,58.761 361.588,57.392 361.731,56.882C362.14,55.433 362.331,45.693 362.001,43.124C361.617,40.135 361.192,37.82 360.908,37.171C360.781,36.88 360.415,35.838 360.095,34.855C359.776,33.873 359.246,32.757 358.918,32.375C358.186,31.523 357.501,31.581 354.349,32.758C353.143,33.209 350.88,33.773 349.322,34.011C347.764,34.25 346.251,34.55 345.96,34.68C345.395,34.931 341.889,35.295 335.945,35.72C333.929,35.864 332.183,36.042 332.064,36.116C331.945,36.189 329.784,36.543 327.262,36.901C323.251,37.471 318.04,38.442 315.136,39.162C311.096,40.162 306.692,41.47 306.272,41.793C306.127,41.905 305.531,42.148 304.949,42.333C303.955,42.649 299.628,44.784 297.276,46.119C289.418,50.582 281.627,58.7 277.828,66.385C276.574,68.922 274.987,73.276 274.012,76.858C273.36,79.254 272.548,84.805 272.137,89.691C271.7,94.873 271.639,107.57 272.029,112.048C272.471,117.113 272.806,122.569 273.328,133.215C273.668,140.168 274.104,145.722 274.386,146.708C274.511,147.145 274.685,148.633 274.773,150.016C275.02,153.897 275.711,160.363 275.99,161.393C276.127,161.902 276.365,163.807 276.518,165.626C276.671,167.445 276.973,170.184 277.189,171.712C277.405,173.24 277.744,175.792 277.942,177.384C278.141,178.977 278.637,182.336 279.046,184.85C279.454,187.364 279.701,189.507 279.595,189.613C279.489,189.719 278.04,189.128 276.375,188.299C274.71,187.471 273.287,186.793 273.213,186.793C273.139,186.793 272.189,186.376 271.101,185.867C270.013,185.357 269.046,184.941 268.952,184.941C268.858,184.941 268.406,184.779 267.948,184.581C266.93,184.142 264.281,183.353 263.823,183.353C263.64,183.353 263.115,183.186 262.656,182.982C261.497,182.465 257.655,181.816 253.885,181.5C251.418,181.293 249.853,181.321 246.873,181.624C242.417,182.077 241.044,182.341 237.613,183.402C234.458,184.378 227.214,187.968 225.574,189.369C225.429,189.493 224.893,189.887 224.384,190.244C222.125,191.83 218.381,195.688 215.702,199.191C212.979,202.751 213.206,202.404 212.31,204.388C211.916,205.261 211.495,206.015 211.374,206.063C211.253,206.112 211.155,206.332 211.155,206.552C211.155,206.772 210.981,207.268 210.768,207.654C210.269,208.562 209.121,211.568 208.884,212.59C208.783,213.026 208.611,213.502 208.502,213.648C208.392,213.794 208.216,214.677 208.11,215.61C208.004,216.544 207.807,217.675 207.672,218.124C207.437,218.905 206.817,225.126 206.892,225.951C206.912,226.169 207.033,227.856 207.161,229.699C207.288,231.542 207.576,233.626 207.8,234.329C208.024,235.033 208.285,236.025 208.379,236.534C208.545,237.42 209.412,240.126 210.16,242.091C210.887,243.998 212.101,246.208 212.678,246.676C213.007,246.942 213.208,247.271 213.124,247.406C212.911,247.751 214.604,250.293 215.047,250.293C215.247,250.293 215.376,250.501 215.333,250.756C215.277,251.09 215.425,251.213 215.862,251.197C216.292,251.181 216.426,251.288 216.32,251.562C216.124,252.073 218.25,254.823 218.801,254.77C219.721,254.682 220.15,254.807 220.15,255.163C220.15,255.405 219.965,255.486 219.621,255.397C218.769,255.174 219.009,255.785 220.084,256.575C221.378,257.526 222.197,258.207 223.046,259.039C223.426,259.412 223.942,259.795 224.193,259.891C224.443,259.987 224.648,260.196 224.648,260.354C224.648,260.513 224.759,260.574 224.895,260.49C225.031,260.406 225.549,260.756 226.047,261.268C226.544,261.78 227.103,262.199 227.289,262.199C227.475,262.199 228.178,262.591 228.85,263.071C229.522,263.55 230.489,264.105 230.998,264.305C231.508,264.504 232.112,264.826 232.342,265.021C232.572,265.215 232.929,265.375 233.136,265.376C233.343,265.376 233.831,265.544 234.222,265.748C234.612,265.951 235.295,266.198 235.74,266.296C236.185,266.393 236.616,266.583 236.699,266.717C236.782,266.852 237.114,266.962 237.437,266.962C237.76,266.962 238.259,267.124 238.546,267.322C238.833,267.521 240.497,267.95 242.243,268.276C243.989,268.603 245.835,268.985 246.344,269.125C246.853,269.265 248.997,269.461 251.107,269.56C254.944,269.74 257.077,269.572 261.822,268.718L261.822,268.718Z" style="fill:url(#_Linear9);fill-rule:nonzero;"/>
                </g>
            </g>
        </g>
    </g>
    <defs>
        <linearGradient id="_Linear1" x1="0" y1="0" x2="1" y2="0" gradientUnits="userSpaceOnUse" gradientTransform="matrix(-191.047,-1158.04,1158.04,-191.047,3618.45,2500.12)"><stop offset="0" style="stop-color:#1f618d;stop-opacity:1"/><stop offset="0.47" style="stop-color:#1d8c99;stop-opacity:1"/><stop offset="1" style="stop-color:#19ffb8;stop-opacity:1"/></linearGradient>
        <filter id="_Effect3" filterUnits="userSpaceOnUse" x="2561.76" y="47.6582" width="1642.59" height="1642.59">
            <feGaussianBlur in="SourceGraphic" stdDeviation="31"/>
        </filter>
        <linearGradient id="_Linear4" x1="0" y1="0" x2="1" y2="0.00179523" gradientUnits="userSpaceOnUse" gradientTransform="matrix(-256.738,-845.703,848.453,-255.906,3371.69,1312.06)"><stop offset="0" style="stop-color:#2095a5;stop-opacity:1"/><stop offset="1" style="stop-color:#12d4b2;stop-opacity:1"/></linearGradient>
        <filter id="_Effect5" filterUnits="userSpaceOnUse" x="2501.66" y="-14.608" width="1540.26" height="1154.14">
            <feGaussianBlur in="SourceGraphic" stdDeviation="41.1956"/>
        </filter>
        <filter id="_Effect6" filterUnits="userSpaceOnUse" x="2561.47" y="47.3725" width="1420.65" height="1030.18">
            <feGaussianBlur in="SourceGraphic" stdDeviation="31.0476"/>
        </filter>
        <linearGradient id="_Linear7" x1="0" y1="0" x2="1" y2="-0.0191282" gradientUnits="userSpaceOnUse" gradientTransform="matrix(-45.8633,-1106.55,937.75,-54.1189,3117.67,1477.43)"><stop offset="0" style="stop-color:#2070a5;stop-opacity:1"/><stop offset="1" style="stop-color:#00ffb0;stop-opacity:1"/></linearGradient>
        <filter id="_Effect8" filterUnits="userSpaceOnUse" x="161.227" y="-13.8627" width="246.602" height="329.147">
            <feGaussianBlur in="SourceGraphic" stdDeviation="7.60992"/>
        </filter>
        <linearGradient id="_Linear9" x1="0" y1="0" x2="1" y2="0" gradientUnits="userSpaceOnUse" gradientTransform="matrix(119.943,-222.63,222.63,119.943,230.796,254.427)"><stop offset="0" style="stop-color:#fe6763;stop-opacity:1"/><stop offset="0.33" style="stop-color:#fdda61;stop-opacity:1"/><stop offset="0.36" style="stop-color:#fdc65d;stop-opacity:1"/><stop offset="0.39" style="stop-color:#fdb35a;stop-opacity:1"/><stop offset="0.49" style="stop-color:#fdab59;stop-opacity:1"/><stop offset="1" style="stop-color:#fff16e;stop-opacity:1"/></linearGradient>
    </defs>
</svg>
